<?xml version="1.0" encoding="utf-8"?>
<!-- Generator: Adobe Illustrator 21.0.2, SVG Export Plug-In . SVG Version: 6.00 Build 0)  -->
<svg version="1.1" id="Calque_1" xmlns="http://www.w3.org/2000/svg" xmlns:xlink="http://www.w3.org/1999/xlink" width="42px" height="42px"
	 viewBox="0 0 42 42" style="enable-background:new 0 0 42 42;" xml:space="preserve">
<style type="text/css">
	.st0{fill:none;stroke:#AEAEAE;}
	.st1{fill:#AEAEAE;}
</style>
<title>Group 11</title>
<desc>Created with Sketch.</desc>
<g>
	<path id="Rectangle-Copy-2" class="st0" d="M4.5,0.5h33c2.2,0,4,1.8,4,4v33c0,2.2-1.8,4-4,4h-33c-2.2,0-4-1.8-4-4v-33
		C0.5,2.3,2.3,0.5,4.5,0.5z"/>
	<g>
		<path class="st1" d="M12.6,15.2c0.6,0.3,1.1,0.8,1.5,1.5c0.3,0.6,0.5,1.3,0.5,2.2c0,0.8-0.2,1.5-0.5,2.1c-0.4,0.6-0.9,1.1-1.5,1.4
			c-0.7,0.3-1.4,0.5-2.3,0.5H7.6c-0.1,0-0.1,0-0.1,0.1v4.8c0,0.1,0,0.1-0.1,0.2c0,0-0.1,0.1-0.2,0.1H5c-0.1,0-0.1,0-0.2-0.1
			c0,0-0.1-0.1-0.1-0.2V14.9c0-0.1,0-0.1,0.1-0.2c0,0,0.1-0.1,0.2-0.1h5.4C11.2,14.7,12,14.9,12.6,15.2z M11.4,20.2
			c0.4-0.3,0.5-0.8,0.5-1.3c0-0.6-0.2-1-0.5-1.3C11,17.2,10.6,17,10,17H7.6c-0.1,0-0.1,0-0.1,0.1v3.5c0,0.1,0,0.1,0.1,0.1H10
			C10.6,20.7,11,20.5,11.4,20.2z"/>
		<path class="st1" d="M16.3,27.9c0,0-0.1-0.1-0.1-0.2V14.9c0-0.1,0-0.1,0.1-0.2c0,0,0.1-0.1,0.2-0.1h4.8c0.9,0,1.8,0.2,2.5,0.5
			c0.7,0.3,1.3,0.8,1.7,1.4c0.4,0.6,0.6,1.3,0.6,2.1V24c0,0.8-0.2,1.5-0.6,2.1s-0.9,1.1-1.7,1.4C23,27.8,22.2,28,21.2,28h-4.8
			C16.4,28,16.4,28,16.3,27.9z M19,25.7h2.3c0.6,0,1.1-0.2,1.4-0.6c0.4-0.4,0.5-0.9,0.6-1.6v-4.4c0-0.7-0.2-1.2-0.5-1.6
			S21.9,17,21.3,17H19c-0.1,0-0.1,0-0.1,0.1L19,25.7C18.9,25.7,19,25.7,19,25.7z"/>
		<path class="st1" d="M37.1,16.9c0,0-0.1,0.1-0.2,0.1h-6.2c-0.1,0-0.1,0-0.1,0.1V20c0,0.1,0,0.1,0.1,0.1h4.1c0.1,0,0.1,0,0.2,0.1
			c0,0,0.1,0.1,0.1,0.2v1.8c0,0.1,0,0.1-0.1,0.2c0,0-0.1,0.1-0.2,0.1h-4.1c-0.1,0-0.1,0-0.1,0.1v5.2c0,0.1,0,0.1-0.1,0.2
			c0,0-0.1,0.1-0.2,0.1h-2.2c-0.1,0-0.1,0-0.2-0.1c0,0-0.1-0.1-0.1-0.2V14.9c0-0.1,0-0.1,0.1-0.2c0,0,0.1-0.1,0.2-0.1H37
			c0.1,0,0.1,0,0.2,0.1c0,0,0.1,0.1,0.1,0.2v1.8C37.2,16.8,37.2,16.9,37.1,16.9z"/>
	</g>
</g>
</svg>
