<?xml version="1.0" encoding="UTF-8"?>
<svg width="32px" height="32px" viewBox="0 0 32 32" version="1.1" xmlns="http://www.w3.org/2000/svg" xmlns:xlink="http://www.w3.org/1999/xlink">
    <!-- Generator: Sketch 63.1 (92452) - https://sketch.com -->
    <title>Group 6</title>
    <desc>Created with Sketch.</desc>
    <g id="Page-1" stroke="none" stroke-width="1" fill="none" fill-rule="evenodd">
        <g id="HOME---tableau-01" transform="translate(-72.000000, -815.000000)">
            <g id="Group-6" transform="translate(72.000000, 815.000000)">
                <rect id="Rectangle-Copy-6" fill="#C3C3C3" x="0" y="0" width="32" height="32" rx="4"></rect>
                <g id="Group-2" transform="translate(4.266667, 9.600000)" fill="#6D6D6D">
                    <polygon id="Fill-1" transform="translate(5.866667, 6.400000) scale(-1, 1) rotate(90.000000) translate(-5.866667, -6.400000) " points="6.51785624 1.06666667 5.46731013 2.14095238 8.87972229 5.63809524 1.07943284e-13 5.63809524 1.07943284e-13 7.16190476 8.87972229 7.16190476 5.45985945 10.6590476 6.51785624 11.7333333 11.7333333 6.4"></polygon>
                    <polygon id="Fill-1-Copy" transform="translate(18.666667, 6.400000) scale(-1, -1) rotate(90.000000) translate(-18.666667, -6.400000) " points="19.3178562 1.06666667 18.2673101 2.14095238 21.6797223 5.63809524 12.8 5.63809524 12.8 7.16190476 21.6797223 7.16190476 18.2598595 10.6590476 19.3178562 11.7333333 24.5333333 6.4"></polygon>
                </g>
            </g>
        </g>
    </g>
</svg>