<?xml version="1.0" encoding="utf-8"?>
<!-- Generator: Adobe Illustrator 21.0.2, SVG Export Plug-In . SVG Version: 6.00 Build 0)  -->
<svg version="1.1" id="Calque_1" xmlns="http://www.w3.org/2000/svg" xmlns:xlink="http://www.w3.org/1999/xlink" width="42px" height="42px"
	 viewBox="0 0 42 42" style="enable-background:new 0 0 42 42;" xml:space="preserve">
<style type="text/css">
	.st0{fill:none;stroke:#AEAEAE;}
	.st1{fill:#AEAEAE;}
</style>
<title>Group 12</title>
<desc>Created with Sketch.</desc>
<path id="Rectangle-Copy-2" class="st0" d="M4.5,0.5h33c2.2,0,4,1.8,4,4v33c0,2.2-1.8,4-4,4h-33c-2.2,0-4-1.8-4-4v-33
	C0.5,2.3,2.3,0.5,4.5,0.5z"/>
<g>
	<path class="st1" d="M3.3,27.9c0-0.1,0-0.1,0-0.2L7,21.4c0,0,0-0.1,0-0.1L3.4,15l0-0.1c0-0.1,0.1-0.2,0.2-0.2h2.4
		c0.1,0,0.2,0.1,0.3,0.2l2.5,4.4c0,0.1,0.1,0.1,0.1,0l2.5-4.4c0.1-0.1,0.2-0.2,0.3-0.2H14c0.1,0,0.2,0,0.2,0.1s0,0.1,0,0.2l-3.7,6.3
		c0,0,0,0.1,0,0.1l3.7,6.3l0,0.1c0,0.1-0.1,0.2-0.2,0.2h-2.4c-0.1,0-0.2-0.1-0.3-0.2l-2.5-4.3c0-0.1-0.1-0.1-0.1,0l-2.5,4.3
		C6.1,27.9,6,28,5.9,28H3.5C3.4,28,3.4,28,3.3,27.9z"/>
	<path class="st1" d="M24.7,14.7h2.2c0.1,0,0.1,0,0.2,0.1c0,0,0.1,0.1,0.1,0.2v12.8c0,0.1,0,0.1-0.1,0.2c0,0-0.1,0.1-0.2,0.1h-2.2
		c-0.1,0-0.1,0-0.2-0.1c0,0-0.1-0.1-0.1-0.2v-8.4c0,0,0-0.1,0-0.1s-0.1,0-0.1,0.1l-2,3.2c-0.1,0.1-0.2,0.2-0.3,0.2H21
		c-0.1,0-0.2,0-0.3-0.2l-2-3.2c0,0-0.1-0.1-0.1,0c0,0,0,0,0,0.1v8.4c0,0.1,0,0.1-0.1,0.2c0,0-0.1,0.1-0.2,0.1h-2.2
		c-0.1,0-0.1,0-0.2-0.1c0,0-0.1-0.1-0.1-0.2V14.9c0-0.1,0-0.1,0.1-0.2c0,0,0.1-0.1,0.2-0.1h2.2c0.1,0,0.2,0.1,0.3,0.2l2.9,4.4
		c0,0.1,0.1,0.1,0.1,0l2.9-4.4C24.5,14.8,24.6,14.7,24.7,14.7z"/>
	<path class="st1" d="M29.5,27.9c0,0-0.1-0.1-0.1-0.2V14.9c0-0.1,0-0.1,0.1-0.2s0.1-0.1,0.2-0.1h2.2c0.1,0,0.1,0,0.2,0.1
		c0,0,0.1,0.1,0.1,0.2v10.7c0,0.1,0,0.1,0.1,0.1h6.2c0.1,0,0.1,0,0.2,0.1c0,0,0.1,0.1,0.1,0.2v1.8c0,0.1,0,0.1-0.1,0.2
		c0,0-0.1,0.1-0.2,0.1h-8.8C29.6,28,29.6,28,29.5,27.9z"/>
</g>
</svg>
