<?xml version="1.0" encoding="UTF-8"?>
<svg width="55px" height="68px" viewBox="0 0 55 68" version="1.1" xmlns="http://www.w3.org/2000/svg" xmlns:xlink="http://www.w3.org/1999/xlink">
    <!-- Generator: Sketch 63.1 (92452) - https://sketch.com -->
    <title>PIC Doc Image</title>
    <desc>Created with Sketch.</desc>
    <defs>
        <polygon id="path-1" points="0 0.0983829787 54.3421711 0.0983829787 54.3421711 67.9994213 0 67.9994213"></polygon>
    </defs>
    <g id="Page-1" stroke="none" stroke-width="1" fill="none" fill-rule="evenodd">
        <g id="HOME---déroulé" transform="translate(-74.000000, -817.000000)">
            <g id="PIC-Doc-Image" transform="translate(74.000000, 817.000000)">
                <g id="Group-8">
                    <g id="Group-7">
                        <mask id="mask-2" fill="white">
                            <use xlink:href="#path-1"></use>
                        </mask>
                        <g id="Clip-6"></g>
                        <path d="M47.5496711,61.2095489 L6.79322368,61.2095489 L6.79322368,6.8891234 L30.5676974,6.8891234 L30.5676974,23.8645277 L47.5496711,23.8645277 L47.5496711,61.2095489 Z M33.9632237,0.0978042553 L6.79322368,0.0978042553 C3.05611842,0.0978042553 0.0340131579,3.15346383 0.0340131579,6.8891234 L-0.000723684211,61.2095489 C-0.000723684211,64.9452085 3.02282895,67.9994213 6.75848684,67.9994213 L47.5496711,67.9994213 C51.2853289,67.9994213 54.3421711,64.9452085 54.3421711,61.2095489 L54.3421711,20.4688681 L33.9632237,0.0978042553 Z" id="Fill-5" fill="#AEAEAE" mask="url(#mask-2)"></path>
                    </g>
                    <path d="M27.5,38 C30.5370686,38 33,40.4634562 33,43.501172 C33,46.5388877 30.5370686,49 27.5,49 C24.4629314,49 22,46.5388877 22,43.501172 C22,40.4634562 24.4629314,38 27.5,38" id="Fill-1" fill="#AEAEAE"></path>
                    <path d="M27.3684211,50.6666667 C23.4025566,50.6666667 20.1832308,47.4304545 20.1832308,43.4437879 C20.1832308,39.4590909 23.4025566,36.2228788 27.3684211,36.2228788 C31.3342855,36.2228788 34.5536113,39.4590909 34.5536113,43.4437879 C34.5536113,47.4304545 31.3342855,50.6666667 27.3684211,50.6666667 L27.3684211,50.6666667 Z M23.0576988,29 L20.4281582,31.8895455 L15.8725086,31.8895455 C14.2932167,31.8895455 13,33.1895455 13,34.7790909 L13,52.1104545 C13,53.7 14.2932167,55 15.8725086,55 L38.8643335,55 C40.4436254,55 41.7368421,53.7 41.7368421,52.1104545 L41.7368421,34.7790909 C41.7368421,33.1895455 40.4436254,31.8895455 38.8643335,31.8895455 L34.3086839,31.8895455 L31.6791433,29 L23.0576988,29 Z" id="Fill-3" fill="#AEAEAE"></path>
                </g>
            </g>
        </g>
    </g>
</svg>